<svg height="512pt" viewBox="-9 0 512 512.00018" width="512pt" xmlns="http://www.w3.org/2000/svg"><path d="m237.515625 93.265625s-17.035156-60.191406-60.191406-74.953125c-30.925781-10.582031-51.9375-7.164062-72.226563-16.496094-12.90625-5.9375-27.742187 3.402344-27.953125 17.601563-.582031 39.460937 11.519531 99.300781 89.960938 117.589843-2.273438-1.722656 70.410156 0 70.410156 0zm0 0" fill="#9ad880"/><path d="m86.246094 73.28125c11.003906 27.253906 34.1875 52.84375 80.855468 63.726562-2.269531-1.722656 70.410157 0 70.410157 0v-43.742187s-17.035157-60.191406-60.1875-74.953125c-7.574219-2.589844-14.550781-4.34375-21.070313-5.648438 1.960938 4.363282 4.183594 9.617188 6.339844 15.363282 6.769531 18.046875-6.597656 37.375-25.875 37.214844-15.894531-.128907-34.578125 1.566406-50.472656 8.039062zm0 0" fill="#8dc971"/><path d="m224.753906 146.992188s-23.269531-73.789063 17.253906-129.222657c12.347657-16.886719 36.894532-18.738281 51.894532-4.160156.253906.246094 23.574218 22.609375 3.25 47.652344-14.617188 18.011719-29.730469 48.429687-23.679688 95.839843-.917968-.917968-48.71875-10.109374-48.71875-10.109374zm0 0" fill="#b2785b"/><path d="m339.734375 103.066406c-24.214844 0-47.121094 5.582032-67.511719 15.527344-15.917968 7.761719-34.570312 7.761719-50.488281 0-20.390625-9.945312-43.296875-15.527344-67.511719-15.527344-85.175781 0-154.222656 69.046875-154.222656 154.222656 0 85.175782 69.046875 254.710938 154.222656 254.710938 21.765625 0 42.472656-11.070312 61.246094-28.96875 17.722656-16.902344 45.296875-16.902344 63.019531 0 18.773438 17.898438 39.480469 28.96875 61.246094 28.96875 85.175781 0 154.222656-169.535156 154.222656-254.710938 0-85.175781-69.046875-154.222656-154.222656-154.222656zm0 0" fill="#ff737d"/><path d="m237.515625 418.304688c-38.609375-22.582032-62.945313-58.359376-78.355469-94.644532-23.742187-55.910156 6.667969-119.964844 64.941406-137.105468 63.953126-18.808594 95.933594-58.929688 110.085938-83.390626-22.160156.785157-43.140625 6.25-61.964844 15.429688-15.917968 7.765625-34.570312 7.765625-50.488281 0-20.390625-9.945312-43.296875-15.527344-67.511719-15.527344-85.171875 0-154.222656 69.046875-154.222656 154.222656 0 85.175782 69.046875 254.710938 154.222656 254.710938 21.765625 0 42.472656-11.070312 61.246094-28.96875 17.722656-16.902344 45.296875-16.902344 63.019531 0 18.773438 17.898438 39.480469 28.96875 61.246094 28.96875 9.097656 0 18.015625-1.933594 26.683594-5.496094-33.707031-44.101562-42.832031-37.851562-128.902344-88.199218zm0 0" fill="#f46262"/><path d="m181.023438 313.796875c0-13.582031-13.824219-24.589844-30.878907-24.589844-17.050781 0-30.875 11.007813-30.875 24.589844 0 13.578125 13.824219 24.589844 30.875 24.589844 17.054688 0 30.878907-11.011719 30.878907-24.589844zm0 0" fill="#ffd9e8"/><path d="m374.6875 313.796875c0-13.582031-13.824219-24.589844-30.875-24.589844-17.054688 0-30.878906 11.007813-30.878906 24.589844 0 13.578125 13.824218 24.589844 30.878906 24.589844 17.050781 0 30.875-11.011719 30.875-24.589844zm0 0" fill="#ffd9e8"/><g fill="#57565c"><path d="m246.980469 309.804688c-10 0-20-3.238282-28.347657-9.710938-3.371093-2.613281-3.984374-7.46875-1.367187-10.839844 2.613281-3.371094 7.46875-3.984375 10.839844-1.371094 11.113281 8.621094 26.632812 8.621094 37.746093 0 3.371094-2.613281 8.226563-2 10.839844 1.371094 2.617188 3.371094 2.003906 8.226563-1.371094 10.839844-8.339843 6.472656-18.339843 9.710938-28.339843 9.710938zm0 0"/><path d="m169.164062 294.980469c-1.730468-2.539063-4.25-2.847657-5.277343-2.847657-1.023438 0-3.585938.277344-5.277344 2.847657-2.34375 3.566406-7.132813 4.558593-10.699219 2.214843-3.566406-2.339843-4.558594-7.132812-2.214844-10.699218 4.039063-6.144532 10.839844-9.816406 18.191407-9.816406 7.355469 0 14.15625 3.671874 18.195312 9.816406 2.34375 3.566406 1.351563 8.359375-2.214843 10.699218-1.308594.859376-7.09375 3.085938-10.703126-2.214843zm0 0"/><path d="m335.347656 294.980469c-1.734375-2.539063-4.253906-2.847657-5.277344-2.847657-1.023437 0-3.589843.277344-5.277343 2.847657-2.34375 3.566406-7.132813 4.558593-10.699219 2.214843-3.566406-2.339843-4.558594-7.132812-2.214844-10.699218 4.035156-6.144532 10.835938-9.816406 18.191406-9.816406 7.355469 0 14.15625 3.671874 18.191407 9.816406 2.34375 3.566406 1.351562 8.359375-2.214844 10.699218-1.308594.859376-7.089844 3.085938-10.699219-2.214843zm0 0"/></g></svg>