<svg id="bold" enable-background="new 0 0 32 32" height="512" viewBox="0 0 32 32" width="512" xmlns="http://www.w3.org/2000/svg"><path d="m26 32h-20c-3.314 0-6-2.686-6-6v-20c0-3.314 2.686-6 6-6h20c3.314 0 6 2.686 6 6v20c0 3.314-2.686 6-6 6z" fill="#e3f8fa"/><path d="m22.34 10.314-6.167-2.283c-.112-.042-.235-.042-.347 0l-6.166 2.283c-.196.073-.327.259-.327.469v5.334c0 6.068 6.473 7.85 6.539 7.867.084.022.172.022.256 0 .065-.017 6.539-1.799 6.539-7.867v-5.334c0-.21-.131-.397-.327-.469zm-7.007 8.798-3.114-1.132c-.131-.048-.219-.173-.219-.313v-3.583l3.333 1.389zm4.667-1.445c0 .14-.088.265-.219.313l-3.114 1.132v-3.64l3.333-1.389zm-4-3-4-1.667 4-1.667 4 1.667z" fill="#26c6da"/></svg>