<?xml version="1.0" encoding="UTF-8"?>
<svg xmlns="http://www.w3.org/2000/svg" xmlns:xlink="http://www.w3.org/1999/xlink" version="1.1" id="Capa_1" x="0px" y="0px" viewBox="0 0 468.293 468.293" style="enable-background:new 0 0 468.293 468.293;" xml:space="preserve" width="512" height="512" class=""><g><path style="fill:#4949E7" d="M403.963,390.943H64.33c-10.345,0-18.732-8.386-18.732-18.732V222.118h377.096v150.094  C422.694,382.557,414.308,390.943,403.963,390.943z" data-original="#647989" class="" data-old_color="#647989"></path><polygon style="fill:#D71AC8" points="348.117,141.545 120.176,141.545 45.598,222.118 422.694,222.118 " data-original="#1A76A1" class="active-path" data-old_color="#1A76A1"></polygon><rect x="128.562" y="326.094" style="fill:#3B566A;" width="211.175" height="64.849" data-original="#3B566A" class=""></rect><rect x="142.711" y="57.319" style="fill:#4949E7" width="182.884" height="108.869" data-original="#647989" class="" data-old_color="#647989"></rect><polygon style="fill:#3B566A;" points="325.581,166.19 142.712,166.19 119.991,185.918 348.301,185.918 " data-original="#3B566A" class=""></polygon><rect x="158.726" style="fill:#E0E5E8" width="150.853" height="166.188" data-original="#E0E5E8" class=""></rect><polygon style="fill:#D71AC8" points="339.733,468.293 128.559,468.293 158.783,358.518 309.51,358.518 " data-original="#1A76A1" class="active-path" data-old_color="#1A76A1"></polygon><polygon style="fill:#E0E5E8" points="147.557,453.211 170.757,358.518 297.536,358.518 320.736,453.211 " data-original="#E0E5E8" class=""></polygon><circle style="fill:#FAD362;" cx="87.009" cy="256.524" r="15.61" data-original="#FAD362"></circle><circle style="fill:#4EBD9E;" cx="138.721" cy="256.524" r="15.61" data-original="#4EBD9E" class=""></circle></g> </svg>
