<svg id="Guide" height="512" viewBox="0 0 512 512" width="512" xmlns="http://www.w3.org/2000/svg"><path d="m130.323 125.595h-30l-57.427 67.209v293.07h30v-293.07z" fill="#d4e1f4"/><path d="m494.9 360.152h-37.233c.311-11.379.105-37.1-5.6-72.692-7.053-44.02-24.269-111.992-66.241-185.829-32.855-57.8-69.083-86.634-107.6-85.737-29.106.687-58.2 18.036-86.473 51.565a286.225 286.225 0 0 0 -33.4 49.421 6 6 0 1 0 10.7 5.431c.472-.93 47.893-92.968 109.453-94.42.489-.011.975-.017 1.463-.017 33.263 0 65.361 26.8 95.423 79.687 40.981 72.094 57.832 138.411 64.752 181.35 5.638 34.984 5.784 60.555 5.5 71.241h-46.6a8.009 8.009 0 0 0 -8 8v80.034a8.009 8.009 0 0 0 8 8h95.856a8.009 8.009 0 0 0 8-8v-80.034a8.009 8.009 0 0 0 -8-8zm-4 84.034h-87.851v-72.034h87.851z" fill="#0635c9"/><g fill="#1ae5be"><path d="m296.518 191.329a8 8 0 0 0 -1.918-5.2l-59.58-69.729a7.985 7.985 0 0 0 -6.085-2.808h-130.456a7.987 7.987 0 0 0 -6.082 2.8l-59.583 69.739a8.007 8.007 0 0 0 -1.918 5.2v302.543a4 4 0 0 0 4 4h257.622a4 4 0 0 0 4-4zm-12 294.545h-241.618v-293.074l57.423-67.2h126.769l57.426 67.2z"/><path d="m209.151 169.243h-85.763a6 6 0 1 0 0 12h85.763a6 6 0 0 0 0-12z"/></g></svg>